<svg width="111" height="111" viewBox="0 0 111 111" fill="none" xmlns="http://www.w3.org/2000/svg">
<path d="M92.5 101.75H83.25V78.625H92.5M27.75 101.75H18.5V78.625H27.75M106.375 18.5V60.125C106.375 62.5783 105.4 64.931 103.666 66.6657C101.931 68.4004 99.5783 69.375 97.125 69.375H13.875C11.4217 69.375 9.06897 68.4004 7.33426 66.6657C5.59955 64.931 4.625 62.5783 4.625 60.125V18.5C4.625 16.0467 5.59955 13.694 7.33426 11.9593C9.06897 10.2246 11.4217 9.25 13.875 9.25H97.125C99.5783 9.25 101.931 10.2246 103.666 11.9593C105.4 13.694 106.375 16.0467 106.375 18.5ZM97.125 18.5H13.875V60.125H97.125M92.5 27.75H69.375V37H92.5M83.25 41.625H69.375V50.875H83.25M64.75 50.875H18.5L31.1262 34.04L40.3762 46.6663L43.7525 44.1688L37.925 36.1675L45.8337 25.6688L64.75 50.875Z" fill="white"/>
<line x1="16.9609" y1="55" x2="94.0443" y2="55" stroke="white"/>
</svg>
