<svg width="91" height="91" viewBox="0 0 91 91" fill="none" xmlns="http://www.w3.org/2000/svg">
<path d="M78.8661 18.2V66.7333C78.8661 73.4067 73.4062 78.8667 66.7328 78.8667H24.2661C17.5928 78.8667 12.1328 73.4067 12.1328 66.7333V18.2C12.1328 11.5267 17.5928 6.06665 24.2661 6.06665H66.7328C73.4062 6.06665 78.8661 11.5267 78.8661 18.2ZM54.5995 63.7C54.5995 67.0367 57.3295 69.7667 60.6661 69.7667C64.0028 69.7667 66.7328 67.0367 66.7328 63.7C66.7328 60.3633 64.0028 57.6333 60.6661 57.6333C57.3295 57.6333 54.5995 60.3633 54.5995 63.7ZM36.3995 63.7C36.3995 60.3633 33.6695 57.6333 30.3328 57.6333C26.9961 57.6333 24.2661 60.3633 24.2661 63.7C24.2661 67.0367 26.9961 69.7667 30.3328 69.7667C33.6695 69.7667 36.3995 67.0367 36.3995 63.7ZM18.1995 27.3L18.2601 45.5C18.2601 47.1987 19.6555 48.5333 21.2935 48.5333H39.4935C41.1315 48.5333 42.5268 47.1987 42.5268 45.5L42.4055 27.3C42.4055 25.6013 41.0708 24.2667 39.3721 24.2667H21.2328C19.5341 24.2667 18.1995 25.6013 18.1995 27.3ZM48.5328 27.3L48.5935 45.5C48.5935 47.1987 49.9888 48.5333 51.6268 48.5333H69.8268C71.4648 48.5333 72.8602 47.1987 72.8602 45.5L72.7388 27.3C72.7388 25.6013 71.4041 24.2667 69.7055 24.2667H51.5661C49.8675 24.2667 48.5328 25.6013 48.5328 27.3ZM24.2661 15.1667C24.2661 16.8653 25.6008 18.2 27.2995 18.2H63.6995C65.3981 18.2 66.7328 16.8653 66.7328 15.1667C66.7328 13.468 65.3981 12.1333 63.6995 12.1333H27.2995C25.6008 12.1333 24.2661 13.468 24.2661 15.1667Z" fill="white"/>
</svg>
