<svg width="13" height="17" viewBox="0 0 13 17" fill="none" xmlns="http://www.w3.org/2000/svg">
<path d="M12.0929 0.00166544C12.2175 -0.00614314 12.3422 0.0135732 12.4583 0.0594139C12.5744 0.105255 12.6789 0.176095 12.7646 0.266903C12.8502 0.35771 12.9147 0.466257 12.9537 0.584832C12.9926 0.703407 13.005 0.829101 12.9898 0.952985L11.7051 14.7378C11.623 15.4072 10.8319 15.7192 10.3152 15.2857L7.60423 13.0872L6.38873 15.1927C5.68969 16.4034 4.58061 16.7009 3.36987 16.0019C2.15913 15.3029 1.86197 14.1934 2.56101 12.9827L3.77226 10.8849L0.559942 9.65341C-0.0738173 9.42272 -0.199449 8.5814 0.338942 8.1756L11.6349 0.170645C11.7678 0.0707196 11.927 0.0119681 12.0929 0.00166544Z" fill="white"/>
</svg>
