<svg width="1720" height="858" viewBox="0 0 1720 858" fill="none" xmlns="http://www.w3.org/2000/svg">
<g opacity="0.5">
<rect width="1719.09" height="1" fill="#E8E8E8" fill-opacity="0.4"/>
<rect y="225" width="1719.09" height="1" fill="#E8E8E8" fill-opacity="0.4"/>
<rect y="449" width="1719.09" height="1" fill="#E8E8E8" fill-opacity="0.4"/>
<rect y="673" width="1719.09" height="1" fill="#E8E8E8" fill-opacity="0.4"/>
<rect y="112" width="1719.09" height="1" fill="#E8E8E8" fill-opacity="0.4"/>
<rect y="337" width="1719.09" height="1" fill="#E8E8E8" fill-opacity="0.4"/>
<rect y="561" width="1719.09" height="1" fill="#E8E8E8" fill-opacity="0.4"/>
<rect y="785" width="1719.09" height="1" fill="#E8E8E8" fill-opacity="0.4"/>
<rect y="56" width="1719.09" height="1" fill="#E8E8E8" fill-opacity="0.4"/>
<rect y="281" width="1719.09" height="1" fill="#E8E8E8" fill-opacity="0.4"/>
<rect y="505" width="1719.09" height="1" fill="#E8E8E8" fill-opacity="0.4"/>
<rect y="729" width="1719.09" height="1" fill="#E8E8E8" fill-opacity="0.4"/>
<rect y="168" width="1719.09" height="1" fill="#E8E8E8" fill-opacity="0.4"/>
<rect y="393" width="1719.09" height="1" fill="#E8E8E8" fill-opacity="0.4"/>
<rect y="617" width="1719.09" height="1" fill="#E8E8E8" fill-opacity="0.4"/>
<rect y="841" width="1719.09" height="1" fill="#E8E8E8" fill-opacity="0.4"/>
<rect y="28" width="1719.09" height="1" fill="#E8E8E8" fill-opacity="0.4"/>
<rect y="253" width="1719.09" height="1" fill="#E8E8E8" fill-opacity="0.4"/>
<rect y="477" width="1719.09" height="1" fill="#E8E8E8" fill-opacity="0.4"/>
<rect y="701" width="1719.09" height="1" fill="#E8E8E8" fill-opacity="0.4"/>
<rect y="140" width="1719.09" height="1" fill="#E8E8E8" fill-opacity="0.4"/>
<rect y="365" width="1719.09" height="1" fill="#E8E8E8" fill-opacity="0.4"/>
<rect y="589" width="1719.09" height="1" fill="#E8E8E8" fill-opacity="0.4"/>
<rect y="813" width="1719.09" height="1" fill="#E8E8E8" fill-opacity="0.4"/>
<rect y="84" width="1719.09" height="1" fill="#E8E8E8" fill-opacity="0.4"/>
<rect y="309" width="1719.09" height="1" fill="#E8E8E8" fill-opacity="0.4"/>
<rect y="533" width="1719.09" height="1" fill="#E8E8E8" fill-opacity="0.4"/>
<rect y="757" width="1719.09" height="1" fill="#E8E8E8" fill-opacity="0.4"/>
<rect y="196" width="1719.09" height="1" fill="#E8E8E8" fill-opacity="0.4"/>
<rect y="421" width="1719.09" height="1" fill="#E8E8E8" fill-opacity="0.4"/>
<rect y="645" width="1719.09" height="1" fill="#E8E8E8" fill-opacity="0.4"/>
<rect opacity="0.3" y="14" width="1719.09" height="1" fill="#E8E8E8" fill-opacity="0.4"/>
<rect opacity="0.3" y="239" width="1719.09" height="1" fill="#E8E8E8" fill-opacity="0.4"/>
<rect opacity="0.3" y="463" width="1719.09" height="1" fill="#E8E8E8" fill-opacity="0.4"/>
<rect opacity="0.3" y="687" width="1719.09" height="1" fill="#E8E8E8" fill-opacity="0.4"/>
<rect opacity="0.3" y="126" width="1719.09" height="1" fill="#E8E8E8" fill-opacity="0.4"/>
<rect opacity="0.3" y="351" width="1719.09" height="1" fill="#E8E8E8" fill-opacity="0.4"/>
<rect opacity="0.3" y="575" width="1719.09" height="1" fill="#E8E8E8" fill-opacity="0.4"/>
<rect opacity="0.3" y="799" width="1719.09" height="1" fill="#E8E8E8" fill-opacity="0.4"/>
<rect opacity="0.3" y="70" width="1719.09" height="1" fill="#E8E8E8" fill-opacity="0.4"/>
<rect opacity="0.3" y="295" width="1719.09" height="1" fill="#E8E8E8" fill-opacity="0.4"/>
<rect opacity="0.3" y="519" width="1719.09" height="1" fill="#E8E8E8" fill-opacity="0.4"/>
<rect opacity="0.3" y="743" width="1719.09" height="1" fill="#E8E8E8" fill-opacity="0.4"/>
<rect opacity="0.3" y="182" width="1719.09" height="1" fill="#E8E8E8" fill-opacity="0.4"/>
<rect opacity="0.3" y="407" width="1719.09" height="1" fill="#E8E8E8" fill-opacity="0.4"/>
<rect opacity="0.3" y="631" width="1719.09" height="1" fill="#E8E8E8" fill-opacity="0.4"/>
<rect opacity="0.3" y="855" width="1719.09" height="1" fill="#E8E8E8" fill-opacity="0.4"/>
<rect opacity="0.3" y="42" width="1719.09" height="1" fill="#E8E8E8" fill-opacity="0.4"/>
<rect opacity="0.3" y="267" width="1719.09" height="1" fill="#E8E8E8" fill-opacity="0.4"/>
<rect opacity="0.3" y="491" width="1719.09" height="1" fill="#E8E8E8" fill-opacity="0.4"/>
<rect opacity="0.3" y="715" width="1719.09" height="1" fill="#E8E8E8" fill-opacity="0.4"/>
<rect opacity="0.3" y="154" width="1719.09" height="1" fill="#E8E8E8" fill-opacity="0.4"/>
<rect opacity="0.3" y="379" width="1719.09" height="1" fill="#E8E8E8" fill-opacity="0.4"/>
<rect opacity="0.3" y="603" width="1719.09" height="1" fill="#E8E8E8" fill-opacity="0.4"/>
<rect opacity="0.3" y="827" width="1719.09" height="1" fill="#E8E8E8" fill-opacity="0.4"/>
<rect opacity="0.3" y="98" width="1719.09" height="1" fill="#E8E8E8" fill-opacity="0.4"/>
<rect opacity="0.3" y="323" width="1719.09" height="1" fill="#E8E8E8" fill-opacity="0.4"/>
<rect opacity="0.3" y="547" width="1719.09" height="1" fill="#E8E8E8" fill-opacity="0.4"/>
<rect opacity="0.3" y="771" width="1719.09" height="1" fill="#E8E8E8" fill-opacity="0.4"/>
<rect opacity="0.3" y="210" width="1719.09" height="1" fill="#E8E8E8" fill-opacity="0.4"/>
<rect opacity="0.3" y="435" width="1719.09" height="1" fill="#E8E8E8" fill-opacity="0.4"/>
<rect opacity="0.3" y="659" width="1719.09" height="1" fill="#E8E8E8" fill-opacity="0.4"/>
</g>
<g clip-path="url(#clip0_852_1578)">
<g opacity="0.4">
<path d="M1583.7 186.057V59.0752L1456.72 59.0752V186.057H1583.7Z" stroke="#E8E8E8"/>
<path d="M1552.68 217.076V90.0938L1425.7 90.0938V217.076H1552.68Z" stroke="#E8E8E8"/>
<path d="M1456.72 58.9238L1456.72 186.057L1425.7 216.591V89.6091L1456.72 58.9238Z" stroke="#E8E8E8" stroke-linejoin="bevel"/>
<path d="M1583.7 58.9238V186.057L1552.68 217.075V89.6091L1583.7 58.9238Z" stroke="#E8E8E8" stroke-linejoin="bevel"/>
</g>
</g>
<g clip-path="url(#clip1_852_1578)">
<g opacity="0.4">
<path d="M1113.38 261.362H739.375" stroke="#E8E8E8"/>
<path d="M805.525 195.062V327.363" stroke="#E8E8E8"/>
<path d="M852.29 307.976L758.744 214.431" stroke="#E8E8E8"/>
<path d="M852.29 214.431L758.744 307.976" stroke="#E8E8E8"/>
</g>
</g>
<defs>
<clipPath id="clip0_852_1578">
<rect width="160" height="160" fill="white" transform="translate(1424.62 58)"/>
</clipPath>
<clipPath id="clip1_852_1578">
<rect width="409" height="133" fill="white" transform="translate(739.375 195.062)"/>
</clipPath>
</defs>
</svg>
