<svg width="35" height="35" viewBox="0 0 35 35" fill="none" xmlns="http://www.w3.org/2000/svg">
<path d="M17.5 8.5767L14.0216 0L14.0816 9.25813L7.59253 2.66699L11.1909 11.185L2.66278 7.58979L9.25978 14.0869L0 14.0164L8.57608 17.4942L0 20.9835L9.25978 20.9131L2.66278 27.4102L11.1909 23.8033L7.59253 32.3329L14.0816 25.7418L14.0216 34.9999L17.5 26.4233L20.9784 34.9999L20.9184 25.7418L27.4075 32.3329L23.8091 23.8033L32.3373 27.4102L25.7403 20.9131L35 20.9835L26.4239 17.4942L35 14.0164L25.7403 14.0869L32.3373 7.58979L23.8091 11.185L27.4075 2.66699L20.9184 9.25813L20.9784 0L17.5 8.5767Z" fill="#E8E8E8"/>
</svg>
